<svg width="15" height="12" viewBox="0 0 15 12" fill="none" xmlns="http://www.w3.org/2000/svg">
<g id="svg">
<path d="M8.70002 9.3C8.70001 9.53869 8.60519 9.76761 8.43641 9.93639C8.26763 10.1052 8.03871 10.2 7.80002 10.2H0.900018C0.661323 10.2 0.432405 10.1052 0.263622 9.9364C0.0948392 9.76761 1.80246e-05 9.5387 1.80246e-05 9.3C1.80246e-05 9.06131 0.0948392 8.83239 0.263622 8.6636C0.432405 8.49482 0.661323 8.4 0.900018 8.4H7.80002C8.03871 8.40001 8.26763 8.49483 8.43641 8.66361C8.60519 8.83239 8.70001 9.06131 8.70002 9.3ZM14.1 8.4H11.7V7.5C11.7 7.2613 11.6052 7.03239 11.4364 6.8636C11.2676 6.69482 11.0387 6.6 10.8 6.6C10.5613 6.6 10.3324 6.69482 10.1636 6.8636C9.99484 7.03239 9.90002 7.2613 9.90002 7.5V11.1C9.90002 11.3387 9.99484 11.5676 10.1636 11.7364C10.3324 11.9052 10.5613 12 10.8 12C11.0387 12 11.2676 11.9052 11.4364 11.7364C11.6052 11.5676 11.7 11.3387 11.7 11.1V10.2H14.1C14.3387 10.2 14.5676 10.1052 14.7364 9.9364C14.9052 9.76761 15 9.5387 15 9.3C15 9.06131 14.9052 8.83239 14.7364 8.6636C14.5676 8.49482 14.3387 8.4 14.1 8.4ZM0.899984 3.59993L2.99998 3.6C3.23868 3.60001 3.46763 3.50519 3.63642 3.33641C3.80521 3.16763 3.90003 2.93871 3.90004 2.70002C3.90004 2.46132 3.80523 2.2324 3.63645 2.06362C3.46767 1.89483 3.23875 1.80001 3.00006 1.8L0.900055 1.79993C0.66136 1.79992 0.432403 1.89474 0.263617 2.06352C0.0948306 2.2323 4.77408e-06 2.46121 1.80261e-10 2.69991C-4.77372e-06 2.9386 0.0948118 3.16752 0.263591 3.33631C0.432371 3.5051 0.661289 3.59992 0.899984 3.59993ZM6.00002 5.4C6.23871 5.4 6.46763 5.30517 6.63641 5.13639C6.80519 4.96761 6.90002 4.73869 6.90002 4.5V3.6L14.1 3.59993C14.3387 3.59993 14.5676 3.5051 14.7364 3.33632C14.9052 3.16754 15 2.93862 15 2.69993C15 2.46123 14.9052 2.23231 14.7364 2.06353C14.5676 1.89475 14.3387 1.79993 14.1 1.79993L6.90002 1.8V0.9C6.90002 0.661305 6.8052 0.432387 6.63642 0.263604C6.46763 0.0948213 6.23872 0 6.00002 0C5.76133 0 5.53241 0.0948213 5.36362 0.263604C5.19484 0.432387 5.10002 0.661305 5.10002 0.9V4.5C5.10003 4.73869 5.19485 4.96761 5.36363 5.13639C5.53241 5.30517 5.76133 5.39999 6.00002 5.4Z" fill="#262626"/>
<path d="M8.70002 9.3C8.70001 9.53869 8.60519 9.76761 8.43641 9.93639C8.26763 10.1052 8.03871 10.2 7.80002 10.2H0.900018C0.661323 10.2 0.432405 10.1052 0.263622 9.9364C0.0948392 9.76761 1.80246e-05 9.5387 1.80246e-05 9.3C1.80246e-05 9.06131 0.0948392 8.83239 0.263622 8.6636C0.432405 8.49482 0.661323 8.4 0.900018 8.4H7.80002C8.03871 8.40001 8.26763 8.49483 8.43641 8.66361C8.60519 8.83239 8.70001 9.06131 8.70002 9.3ZM14.1 8.4H11.7V7.5C11.7 7.2613 11.6052 7.03239 11.4364 6.8636C11.2676 6.69482 11.0387 6.6 10.8 6.6C10.5613 6.6 10.3324 6.69482 10.1636 6.8636C9.99484 7.03239 9.90002 7.2613 9.90002 7.5V11.1C9.90002 11.3387 9.99484 11.5676 10.1636 11.7364C10.3324 11.9052 10.5613 12 10.8 12C11.0387 12 11.2676 11.9052 11.4364 11.7364C11.6052 11.5676 11.7 11.3387 11.7 11.1V10.2H14.1C14.3387 10.2 14.5676 10.1052 14.7364 9.9364C14.9052 9.76761 15 9.5387 15 9.3C15 9.06131 14.9052 8.83239 14.7364 8.6636C14.5676 8.49482 14.3387 8.4 14.1 8.4ZM0.899984 3.59993L2.99998 3.6C3.23868 3.60001 3.46763 3.50519 3.63642 3.33641C3.80521 3.16763 3.90003 2.93871 3.90004 2.70002C3.90004 2.46132 3.80523 2.2324 3.63645 2.06362C3.46767 1.89483 3.23875 1.80001 3.00006 1.8L0.900055 1.79993C0.66136 1.79992 0.432403 1.89474 0.263617 2.06352C0.0948306 2.2323 4.77408e-06 2.46121 1.80261e-10 2.69991C-4.77372e-06 2.9386 0.0948118 3.16752 0.263591 3.33631C0.432371 3.5051 0.661289 3.59992 0.899984 3.59993ZM6.00002 5.4C6.23871 5.4 6.46763 5.30517 6.63641 5.13639C6.80519 4.96761 6.90002 4.73869 6.90002 4.5V3.6L14.1 3.59993C14.3387 3.59993 14.5676 3.5051 14.7364 3.33632C14.9052 3.16754 15 2.93862 15 2.69993C15 2.46123 14.9052 2.23231 14.7364 2.06353C14.5676 1.89475 14.3387 1.79993 14.1 1.79993L6.90002 1.8V0.9C6.90002 0.661305 6.8052 0.432387 6.63642 0.263604C6.46763 0.0948213 6.23872 0 6.00002 0C5.76133 0 5.53241 0.0948213 5.36362 0.263604C5.19484 0.432387 5.10002 0.661305 5.10002 0.9V4.5C5.10003 4.73869 5.19485 4.96761 5.36363 5.13639C5.53241 5.30517 5.76133 5.39999 6.00002 5.4Z" fill="black" fill-opacity="0.2"/>
</g>
</svg>
