<svg width="10" height="10" viewBox="0 0 10 10" fill="none" xmlns="http://www.w3.org/2000/svg">
<path id="Vector" d="M2.18131 5.68546L5.12734 8.9011C5.36542 9.18211 5.33092 9.60317 5.05027 9.84156C4.76962 10.0799 4.3491 10.0454 4.11102 9.7644L0.193359 5.4882C0.137024 5.43153 0.0913745 5.36513 0.0586068 5.29221C0.0178584 5.20157 -0.00210677 5.10295 0.000175844 5.00357L0.00018562 5.00295C0.00245399 4.9038 0.0267135 4.80639 0.071208 4.71778C0.0755347 4.7092 0.0800457 4.70071 0.0847379 4.69233C0.11189 4.64368 0.145072 4.59867 0.183495 4.55835L4.20532 0.213664C4.4555 -0.0566061 4.87713 -0.0726201 5.14705 0.177878C5.41696 0.428375 5.43296 0.850553 5.18279 1.12081L2.19266 4.35098H9.33361C9.70165 4.35098 10 4.64972 10 5.01822C10 5.38673 9.70165 5.68547 9.33361 5.68547H2.18131V5.68546Z" fill="#A3A3A3"/>
</svg>
