<svg xmlns="http://www.w3.org/2000/svg" fill="#F1F5F9" height="20" viewBox="0 -960 960 960" ><path d="M190-99q-37.175 0-64.088-26.912Q99-152.825 99-190v-580q0-37.588 26.912-64.794Q152.825-862 190-862h401l-91 92H190v580h580v-312l92-92v404q0 37.175-27.206 64.088Q807.588-99 770-99H190Zm290-381ZM350-350v-184l371-371q13-13.5 29.713-19.75t33.926-6.25q18.361 0 34.983 7 16.622 7 30.378 20l53 53q13.609 13.958 20.804 30.736Q931-803.486 931-786.129q0 17.697-7.261 35.852Q916.478-732.122 903-719L534-350H350Zm510-436-76-75 76 75ZM427-427h76l247-247-38.035-38L674-749 427-504v77Zm284.965-285L674-749l37.965 37L750-674l-38.035-38Z"/></svg>