<svg width="28" height="28" viewBox="0 0 28 28" fill="none" xmlns="http://www.w3.org/2000/svg">
<rect width="28" height="28" rx="14" fill="#FDBA74"/>
<path d="M6.02094 8.532H7.35294V9.528C7.35294 11.76 6.35694 13.716 4.17294 14.448L3.34494 13.164C5.24094 12.552 6.02094 11.052 6.02094 9.528V8.532ZM6.35694 8.532H7.64094V9.456C7.64094 10.932 8.36094 12.3 10.1249 12.864L9.29694 14.112C7.24494 13.404 6.35694 11.616 6.35694 9.456V8.532ZM11.1449 7.956H12.7409V14.46H11.1449V7.956ZM8.97294 14.748C11.3249 14.748 12.7769 15.552 12.7769 16.908C12.7769 18.276 11.3249 19.068 8.97294 19.068C6.62094 19.068 5.16894 18.276 5.16894 16.908C5.16894 15.552 6.62094 14.748 8.97294 14.748ZM8.97294 15.984C7.53294 15.984 6.76494 16.284 6.76494 16.908C6.76494 17.532 7.53294 17.844 8.97294 17.844C10.4249 17.844 11.1929 17.532 11.1929 16.908C11.1929 16.284 10.4249 15.984 8.97294 15.984ZM9.11694 9.972H11.3729V11.268H9.11694V9.972ZM22.592 7.956H24.104V19.068H22.592V7.956ZM21.26 12.216H23.108V13.512H21.26V12.216ZM20.204 8.124H21.692V18.564H20.204V8.124ZM16.46 9.684H17.672V10.668C17.672 13.416 17.072 15.84 15.224 16.956L14.264 15.732C15.932 14.772 16.46 12.804 16.46 10.668V9.684ZM16.784 9.684H18.008V10.668C18.008 12.624 18.572 14.472 20.228 15.336L19.316 16.548C17.444 15.54 16.784 13.248 16.784 10.668V9.684ZM14.624 9.084H19.676V10.368H14.624V9.084Z" fill="white"/>
</svg>
