<svg width="14" height="14" viewBox="0 0 14 14" fill="none" xmlns="http://www.w3.org/2000/svg">
<path id="Vector" d="M8.69792 9.95312L7.44685 8.71255C6.84318 8.11382 6.5413 7.8145 6.19495 7.70507C5.8903 7.60885 5.56285 7.61237 5.26036 7.7152C4.91641 7.83212 4.6211 8.1379 4.03051 8.74945L1.03307 11.7101M8.69792 9.95312L8.95397 9.69925C9.5584 9.09985 9.86058 8.80015 10.2074 8.69073C10.5123 8.5945 10.84 8.59832 11.1427 8.70152C11.4868 8.81882 11.7821 9.12542 12.3726 9.73855L13 10.3701M8.69792 9.95312L11.7062 12.9674M1.03307 11.7101C1.05634 11.8991 1.09597 12.0485 1.16349 12.181C1.3073 12.4632 1.53677 12.6927 1.81902 12.8365C2.13988 13 2.55992 13 3.4 13H10.6C11.0907 13 11.4382 13 11.7062 12.9674M1.03307 11.7101C1 11.4416 1 11.0931 1 10.6V3.4C1 2.55992 1 2.13988 1.16349 1.81902C1.3073 1.53677 1.53677 1.3073 1.81902 1.16349C2.13988 1 2.55992 1 3.4 1H10.6C11.4401 1 11.8602 1 12.181 1.16349C12.4632 1.3073 12.6927 1.53677 12.8365 1.81902C13 2.13988 13 2.55992 13 3.4V10.3701M13 10.3701V10.6C13 11.4401 13 11.8602 12.8365 12.181C12.6927 12.4632 12.4632 12.6927 12.181 12.8365C12.0476 12.9045 11.897 12.9442 11.7062 12.9674M10.75 4.74992C10.75 5.57838 10.0784 6.24992 9.25 6.24992C8.42155 6.24992 7.75 5.57838 7.75 4.74992C7.75 3.92149 8.42155 3.24992 9.25 3.24992C10.0784 3.24992 10.75 3.92149 10.75 4.74992Z" stroke="#525252" stroke-width="1.35" stroke-linecap="round" stroke-linejoin="round"/>
</svg>
