<svg width="12" height="12" viewBox="0 0 12 12" fill="none" xmlns="http://www.w3.org/2000/svg">
<path fill-rule="evenodd" clip-rule="evenodd" d="M1.09091 5.4001H10.9091C11.5116 5.4001 12 5.93736 12 6.6001V7.8001C12 8.46284 11.5116 9.0001 10.9091 9.0001H1.09091C0.488417 9.0001 0 8.46284 0 7.8001V6.6001C0 5.93736 0.488417 5.4001 1.09091 5.4001ZM1.2 6.6001V7.8001H10.8V6.6001H1.2ZM1.09091 0.600098H10.9091C11.5116 0.600098 12 1.13736 12 1.8001V3.0001C12 3.66284 11.5116 4.2001 10.9091 4.2001H1.09091C0.488417 4.2001 0 3.66284 0 3.0001V1.8001C0 1.13736 0.488417 0.600098 1.09091 0.600098ZM1.2 1.8001V3.0001H10.8V1.8001H1.2ZM0 10.2001H7.2V11.4001H0V10.2001Z" fill="#525252"/>
</svg>
