<svg width="16" height="16" viewBox="0 0 16 16" fill="none" xmlns="http://www.w3.org/2000/svg">
<g id="Group 2">
<path id="Vector" d="M11.8166 3.86609H4.20207L4 6.98402H4.46207C4.60965 6.08057 4.85241 5.4185 5.19172 4.9985C5.60207 4.48885 6.1131 4.45574 6.72483 4.45574H7.19379C7.31517 4.45574 7.34 4.52264 7.34 4.66402V11.3523C7.34 11.4357 7.31517 11.5061 7.26621 11.5626H5.7131V12.1344H10.2848V11.5626H8.74621C8.68759 11.5006 8.65862 11.4157 8.65862 11.3075V4.71436C8.65862 4.54333 8.67724 4.45574 8.79586 4.45574H9.30138C10.5214 4.45574 11.2752 5.15161 11.5628 6.98471H11.9993L11.8159 3.86678L11.8166 3.86609Z" fill="#A3A3A3"/>
<path id="Vector_2" d="M14.3448 1.65517V14.3448H1.65517V1.65517H14.3448ZM16 0H0V16H16V0Z" fill="#A3A3A3"/>
</g>
</svg>
