<svg width="16" height="16" viewBox="0 0 16 16" fill="none" xmlns="http://www.w3.org/2000/svg">
<g id="frame">
<path id="Vector" d="M8 12C10.2091 12 12 10.2091 12 8C12 5.79086 10.2091 4 8 4C5.79086 4 4 5.79086 4 8C4 10.2091 5.79086 12 8 12Z" fill="#F1F5F9"/>
<path id="Vector_2" d="M8 2.4C9.496 2.4 10.902 2.9825 11.96 4.04C13.0175 5.0975 13.6 6.504 13.6 8C13.6 9.496 13.0175 10.902 11.96 11.96C10.9025 13.0175 9.496 13.6 8 13.6C6.504 13.6 5.098 13.0175 4.04 11.96C2.9825 10.9025 2.4 9.496 2.4 8C2.4 6.504 2.9825 5.098 4.04 4.04C5.0975 2.9825 6.504 2.4 8 2.4ZM8 0C3.5815 0 0 3.5815 0 8C0 12.4185 3.5815 16 8 16C12.4185 16 16 12.4185 16 8C16 3.5815 12.4185 0 8 0Z" fill="#F1F5F9"/>
</g>
</svg>
