<svg width="14" height="16" viewBox="0 0 14 16" fill="none" xmlns="http://www.w3.org/2000/svg">
<g id="vector">
<path id="Vector" d="M13.6781 0.765869H0.353734L0 6.2225H0.808714C1.06683 4.64132 1.49181 3.48262 2.08553 2.74766C2.803 1.85582 3.69734 1.79707 4.76854 1.79707H5.58975C5.80224 1.79707 5.84599 1.91457 5.84599 2.16143V13.8653C5.84599 14.0115 5.80224 14.134 5.71725 14.234H2.99987V15.234H10.9995V14.234H8.30713C8.20463 14.1253 8.15339 13.9772 8.15339 13.7872V2.24955C8.15339 1.95019 8.18651 1.79707 8.39338 1.79707H9.27771C11.412 1.79707 12.7313 3.01389 13.2357 6.2225H14L13.6781 0.765869Z" fill="#A3A3A3"/>
</g>
</svg>
