<svg width="12" height="14" viewBox="0 0 12 14" fill="none" xmlns="http://www.w3.org/2000/svg">
<g id="Vector">
<path d="M5.99966 1.75008C4.06941 1.75008 2.49966 3.32041 2.49966 5.25008C2.49966 7.18033 4.06941 8.75008 5.99966 8.75008C7.92991 8.75008 9.49966 7.18033 9.49966 5.25008C9.49966 3.31983 7.92991 1.75008 5.99966 1.75008Z" fill="#F8FAFC"/>
<path d="M11.2317 13.6063L9.54526 9.11059C10.59 8.15042 11.2498 6.77727 11.2498 5.25009C11.2498 2.35559 8.89483 9.15527e-05 5.99976 9.15527e-05C3.10468 9.15527e-05 0.749756 2.35617 0.749756 5.25009C0.749756 6.77784 1.40951 8.15042 2.45426 9.11059L0.768432 13.6058C0.726432 13.7183 0.756756 13.8449 0.846006 13.9248C0.901432 13.9744 0.97083 14.0001 1.04143 14.0001C1.08576 14.0001 1.13011 13.9902 1.17211 13.9692L3.35378 12.8783L4.96321 13.9511C5.03671 14.0001 5.13003 14.0123 5.21464 13.9861C5.29981 13.9587 5.36746 13.8939 5.39781 13.8111L6.03539 12.1118L6.59831 13.8006C6.62749 13.8869 6.69456 13.9546 6.78089 13.9843C6.86664 14.0135 6.96171 14.0018 7.03696 13.9511L8.64639 12.8783L10.8281 13.9692C10.8695 13.9896 10.9138 14.0001 10.9587 14.0001C11.0293 14.0001 11.0987 13.9744 11.1542 13.9254C11.2428 13.8449 11.2737 13.7189 11.2317 13.6063ZM3.75393 10.0048L3.72301 9.97392C3.73643 9.98034 3.74983 9.98674 3.76326 9.99317C3.75976 9.99609 3.75743 10.0008 3.75393 10.0048ZM8.10383 9.40984L6.80766 9.84209C6.54458 9.88817 6.27566 9.91677 5.99973 9.91677C3.42665 9.91677 1.33305 7.82319 1.33305 5.25009C1.33305 2.67699 3.42668 0.583416 5.99976 0.583416C8.57283 0.583416 10.6664 2.67702 10.6664 5.25009C10.6664 7.06659 9.62168 8.63927 8.10383 9.40984Z" fill="#F8FAFC"/>
</g>
</svg>
