<svg width="16" height="16" viewBox="0 0 16 16" fill="none" xmlns="http://www.w3.org/2000/svg">
<path fill-rule="evenodd" clip-rule="evenodd" d="M7.17404 0.939091C6.67418 0.0523021 5.58022 -0.277824 4.71779 0.260272L3.43467 1.03528C2.48828 1.60632 2.16739 2.88674 2.70802 3.87439L2.70841 3.87509C2.98731 4.38296 2.94353 4.70738 2.85648 4.86683C2.76938 5.02637 2.52549 5.22855 1.97118 5.22855C0.880127 5.22855 0 6.1694 0 7.3091V8.69091C0 9.83066 0.880127 10.7715 1.97118 10.7715C2.52549 10.7715 2.76938 10.9736 2.85648 11.1332C2.94353 11.2926 2.98731 11.617 2.70841 12.1249L2.70802 12.1256C2.16739 13.1133 2.48858 14.3939 3.43498 14.9649L4.71786 15.7398C5.58028 16.2778 6.67418 15.9477 7.17404 15.0609L7.25921 14.9057C7.53815 14.3978 7.82743 14.275 8.00275 14.275C8.17733 14.275 8.46438 14.3968 8.7396 14.9035L8.74079 14.9057L8.82261 15.0549L8.82596 15.0609C9.32582 15.9477 10.4197 16.2778 11.2821 15.7398L12.5653 14.9648C13.5124 14.3933 13.8313 13.1217 13.2933 12.1281L13.2916 12.1249C13.0127 11.617 13.0565 11.2926 13.1435 11.1332C13.2306 10.9736 13.4745 10.7715 14.0288 10.7715C15.1199 10.7715 16 9.83066 16 8.69091V7.3091C16 6.15752 15.1086 5.22855 14.0288 5.22855C13.4745 5.22855 13.2306 5.02637 13.1435 4.86683C13.0565 4.70738 13.0127 4.38296 13.2916 3.87509L13.292 3.87439C13.8327 2.88664 13.5116 1.60605 12.565 1.0351L11.2822 0.260272C10.4198 -0.277824 9.32582 0.0522707 8.82596 0.939067L8.74079 1.0943C8.46185 1.60221 8.17257 1.72497 7.99717 1.72497C7.82267 1.72497 7.53562 1.60324 7.2604 1.09648L7.25921 1.0943L7.17739 0.945113L7.17404 0.939091ZM10.2278 8C10.2278 9.30086 9.22875 10.3554 7.99628 10.3554C6.76381 10.3554 5.76476 9.30086 5.76476 8C5.76476 6.69914 6.76381 5.64465 7.99628 5.64465C9.22875 5.64465 10.2278 6.69914 10.2278 8Z" fill="#D4D4D4"/>
</svg>
