<svg width="12" height="12" viewBox="0 0 12 12" fill="none" xmlns="http://www.w3.org/2000/svg">
<path fill-rule="evenodd" clip-rule="evenodd" d="M9.93754 10.8H2.06291C1.63907 10.8 1.32609 10.3818 1.48595 9.99719C2.22766 8.21879 3.97016 7.2 5.99991 7.2C8.03028 7.2 9.77278 8.21879 10.5145 9.99719C10.6743 10.3818 10.3614 10.8 9.93754 10.8ZM3.55 3.59999C3.55 2.27639 4.6494 1.19999 5.99991 1.19999C7.35104 1.19999 8.44983 2.27639 8.44983 3.59999C8.44983 4.92359 7.35104 6 5.99991 6C4.6494 6 3.55 4.92359 3.55 3.59999ZM11.9734 10.5816C11.5281 8.56619 10.1354 7.07878 8.30222 6.40378C9.27361 5.63758 9.84015 4.39856 9.63191 3.04196C9.39059 1.46816 8.05417 0.208786 6.4409 0.0251861C4.21393 -0.228614 2.32504 1.46939 2.32504 3.59999C2.32504 4.73399 2.86158 5.74438 3.69822 6.40378C1.86446 7.07878 0.472299 8.56619 0.0264144 10.5816C-0.13528 11.3142 0.467399 12 1.23238 12H10.7674C11.533 12 12.1357 11.3142 11.9734 10.5816Z" fill="#94A3B8"/>
</svg>
