<svg width="14" height="12" viewBox="0 0 14 12" fill="none" xmlns="http://www.w3.org/2000/svg">
<path id="svg" fill-rule="evenodd" clip-rule="evenodd" d="M0 6C0 7.12709 0.29216 7.50666 0.876487 8.26579C2.04322 9.78152 3.99995 11.5 6.875 11.5C9.75006 11.5 11.7067 9.78152 12.8735 8.26579C13.4578 7.50666 13.75 7.12709 13.75 6C13.75 4.87291 13.4578 4.49336 12.8735 3.73423C11.7067 2.21845 9.75006 0.5 6.875 0.5C3.99995 0.5 2.04322 2.21845 0.876487 3.73423C0.29216 4.49336 0 4.87291 0 6ZM6.875 3.42188C5.45114 3.42188 4.29688 4.57614 4.29688 6C4.29688 7.42388 5.45114 8.57812 6.875 8.57812C8.29888 8.57812 9.45312 7.42388 9.45312 6C9.45312 4.57614 8.29888 3.42188 6.875 3.42188Z" fill="#525252"/>
</svg>
