<svg width="332" height="210" viewBox="0 0 332 210" fill="none" xmlns="http://www.w3.org/2000/svg">
<g opacity="0.9">
<path d="M28.64 4.24H31.32V22.76H28.64V4.24ZM30.62 11.32H33.88V13.5H30.62V11.32ZM23.78 6.16H26.38C26.38 11.72 24.26 16.48 18.1 19.58L16.62 17.56C21.48 15.04 23.78 11.64 23.78 6.62V6.16ZM17.64 6.16H25.14V8.3H17.64V6.16ZM39.3184 6.32H41.4984V7.48C41.4984 11.02 39.8384 14.2 36.2584 15.38L34.9384 13.28C38.0184 12.26 39.3184 9.84 39.3184 7.48V6.32ZM39.8584 6.32H42.0184V7.48C42.0184 9.64 43.2584 11.76 46.2384 12.66L44.9784 14.74C41.4584 13.68 39.8584 10.78 39.8584 7.48V6.32ZM35.6384 5.5H45.6384V7.62H35.6384V5.5ZM47.1184 4.26H49.7784V15.24H47.1184V4.26ZM49.0384 8.52H52.2384V10.7H49.0384V8.52ZM43.7384 15.58C47.5784 15.58 49.9984 16.92 49.9984 19.18C49.9984 21.44 47.5784 22.78 43.7384 22.78C39.8784 22.78 37.4584 21.44 37.4584 19.18C37.4584 16.92 39.8784 15.58 43.7384 15.58ZM43.7384 17.66C41.3784 17.66 40.0984 18.14 40.0984 19.18C40.0984 20.22 41.3784 20.74 43.7384 20.74C46.0984 20.74 47.3584 20.22 47.3584 19.18C47.3584 18.14 46.0984 17.66 43.7384 17.66ZM65.2458 9.78H67.8858V12.36H65.2458V9.78ZM64.7658 5.58H67.0858V6.04C67.0858 8.56 64.5458 10.5 59.7458 10.82L58.9258 8.84C62.9858 8.62 64.7658 7.28 64.7658 6.04V5.58ZM66.1258 5.58H68.4258V6.04C68.4258 7.28 70.1858 8.62 74.2658 8.84L73.4458 10.82C68.6658 10.5 66.1258 8.58 66.1258 6.04V5.58ZM59.7458 4.72H73.4658V6.74H59.7458V4.72ZM59.7258 15.42H73.4258V17.42H59.7258V15.42ZM58.2258 11.46H75.0058V13.56H58.2258V11.46ZM66.5658 17.96C70.1458 17.96 72.2258 18.82 72.2258 20.4C72.2258 22 70.1458 22.84 66.5658 22.84C62.9858 22.84 60.9058 22 60.9058 20.4C60.9058 18.82 62.9858 17.96 66.5658 17.96ZM66.5658 19.7C64.6258 19.7 63.6658 19.88 63.6658 20.4C63.6658 20.9 64.6258 21.1 66.5658 21.1C68.5058 21.1 69.4658 20.9 69.4658 20.4C69.4658 19.88 68.5058 19.7 66.5658 19.7ZM65.2458 14.12H67.9058V16.62H65.2458V14.12ZM81.5842 5.54C84.4042 5.54 86.4442 8.1 86.4442 12.14C86.4442 16.22 84.4042 18.78 81.5842 18.78C78.7642 18.78 76.7242 16.22 76.7242 12.14C76.7242 8.1 78.7642 5.54 81.5842 5.54ZM81.5842 7.96C80.2042 7.96 79.2842 9.42 79.2842 12.14C79.2842 14.9 80.2042 16.38 81.5842 16.38C82.9642 16.38 83.9042 14.9 83.9042 12.14C83.9042 9.42 82.9642 7.96 81.5842 7.96ZM88.4642 4.26H91.1442V22.78H88.4642V4.26ZM90.5442 11.24H93.8242V13.44H90.5442V11.24ZM106.903 4.26H109.543V22.78H106.903V4.26ZM108.943 11.48H112.223V13.7H108.943V11.48ZM94.9427 7H105.723V9.12H94.9427V7ZM100.363 10.16C103.063 10.16 105.063 12 105.063 14.58C105.063 17.16 103.063 19 100.363 19C97.6627 19 95.6627 17.16 95.6627 14.58C95.6627 12 97.6627 10.16 100.363 10.16ZM100.363 12.32C99.1027 12.32 98.2027 13.16 98.2027 14.58C98.2027 16 99.1027 16.84 100.363 16.84C101.623 16.84 102.523 16 102.523 14.58C102.523 13.16 101.623 12.32 100.363 12.32ZM99.0227 4.56H101.683V7.8H99.0227V4.56ZM115.501 9.26H128.341V11.36H115.501V9.26ZM113.421 13.28H130.201V15.4H113.421V13.28ZM115.501 4.92H118.141V10.3H115.501V4.92ZM115.321 20.26H128.441V22.38H115.321V20.26ZM115.321 16.88H117.981V20.82H115.321V16.88ZM137.228 6.1H145.208V8.2H137.228V6.1ZM139.608 11.4H142.228V17.68H139.608V11.4ZM144.148 6.1H146.768V7.6C146.768 9.4 146.768 11.64 146.268 14.72L143.668 14.48C144.148 11.52 144.148 9.38 144.148 7.6V6.1ZM148.348 4.26H151.008V22.78H148.348V4.26ZM150.228 11.7H153.488V13.9H150.228V11.7ZM136.528 19.04L136.288 16.9C139.548 16.9 143.868 16.84 147.508 16.38L147.648 18.32C143.908 18.96 139.748 19.04 136.528 19.04ZM160.067 4.8C162.887 4.8 165.007 6.56 165.007 9.04C165.007 11.5 162.887 13.26 160.067 13.26C157.247 13.26 155.127 11.5 155.127 9.04C155.127 6.56 157.247 4.8 160.067 4.8ZM160.067 6.96C158.707 6.96 157.687 7.72 157.687 9.04C157.687 10.36 158.707 11.12 160.067 11.12C161.427 11.12 162.427 10.36 162.427 9.04C162.427 7.72 161.427 6.96 160.067 6.96ZM167.567 4.26H170.247V13.52H167.567V4.26ZM157.887 14.28H170.247V19.36H160.527V21.6H157.927V17.44H167.607V16.34H157.887V14.28ZM157.927 20.52H170.707V22.58H157.927V20.52ZM181.625 4.52C185.845 4.52 188.325 5.64 188.325 7.68C188.325 9.72 185.845 10.84 181.625 10.84C177.385 10.84 174.925 9.72 174.925 7.68C174.925 5.64 177.385 4.52 181.625 4.52ZM181.625 6.46C178.945 6.46 177.685 6.86 177.685 7.68C177.685 8.54 178.945 8.9 181.625 8.9C184.305 8.9 185.565 8.54 185.565 7.68C185.565 6.86 184.305 6.46 181.625 6.46ZM173.245 11.7H189.985V13.8H173.245V11.7ZM175.165 14.84H187.965V19.6H177.805V21.24H175.185V17.76H185.345V16.82H175.165V14.84ZM175.185 20.66H188.445V22.66H175.185V20.66ZM198.193 4.94H209.913V7.02H198.193V4.94ZM196.313 11.2H212.993V13.26H196.313V11.2ZM202.493 8.52H205.133V12.22H202.493V8.52ZM208.373 4.94H211.013V6.04C211.013 7.14 211.013 8.6 210.693 10.44L208.053 10.24C208.373 8.44 208.373 7.14 208.373 6.04V4.94ZM198.153 14.38H211.033V19.38H200.833V21.38H198.173V17.56H208.393V16.46H198.153V14.38ZM198.173 20.6H211.513V22.66H198.173V20.6ZM226.551 4.24H229.191V22.82H226.551V4.24ZM228.591 11.24H231.871V13.44H228.591V11.24ZM215.431 16.34H216.991C220.131 16.34 222.571 16.24 225.291 15.76L225.551 17.9C222.751 18.4 220.211 18.52 216.991 18.52H215.431V16.34ZM215.411 5.82H223.931V13H218.071V17.16H215.431V10.88H221.291V7.94H215.411V5.82ZM239.93 6.32H242.23V6.86C242.23 10.12 239.57 12.78 234.87 13.42L233.89 11.34C237.97 10.84 239.93 8.76 239.93 6.86V6.32ZM240.69 6.32H242.99V6.86C242.99 8.76 244.95 10.84 249.03 11.34L248.07 13.42C243.35 12.78 240.69 10.12 240.69 6.86V6.32ZM240.07 16H242.71V22.8H240.07V16ZM233.09 14.48H249.83V16.6H233.09V14.48ZM234.57 5.2H248.31V7.3H234.57V5.2ZM258.768 10.48H261.828V12.64H258.768V10.48ZM254.808 5.86H256.848V8.98C256.848 13.18 255.688 17.28 252.728 19.1L251.128 17.1C253.848 15.42 254.808 12.12 254.808 8.98V5.86ZM255.388 5.86H257.388V8.86C257.388 11.88 258.168 14.96 260.688 16.6L259.248 18.68C256.308 16.86 255.388 12.86 255.388 8.86V5.86ZM264.848 4.26H267.388V22.78H264.848V4.26ZM261.088 4.54H263.568V21.94H261.088V4.54ZM273.566 13.66H276.206V18.86H273.566V13.66ZM280.286 13.66H282.946V18.86H280.286V13.66ZM269.886 18.48H286.646V20.64H269.886V18.48ZM278.246 5.16C282.226 5.16 285.166 7.12 285.166 10.14C285.166 13.16 282.226 15.1 278.246 15.1C274.246 15.1 271.326 13.16 271.326 10.14C271.326 7.12 274.246 5.16 278.246 5.16ZM278.246 7.24C275.666 7.24 273.946 8.3 273.946 10.14C273.946 11.96 275.666 13.04 278.246 13.04C280.826 13.04 282.546 11.96 282.546 10.14C282.546 8.3 280.826 7.24 278.246 7.24Z" fill="#1E293B"/>
<path d="M24.992 39.36H28.096V40.448H24.992V39.36ZM24.992 41.952H28.096V43.04H24.992V41.952ZM17.216 37.872H24.832V38.96H17.216V37.872ZM16.976 44.848L16.832 43.728C19.2 43.728 22.576 43.696 25.28 43.376L25.36 44.368C22.576 44.816 19.328 44.848 16.976 44.848ZM18.656 38.72H19.936V44.096H18.656V38.72ZM22.112 38.72H23.392V44.096H22.112V38.72ZM27.36 36.784H28.688V45.712H27.36V36.784ZM23.936 46C26.928 46 28.752 46.944 28.752 48.608C28.752 50.272 26.928 51.216 23.936 51.216C20.928 51.216 19.104 50.272 19.104 48.608C19.104 46.944 20.928 46 23.936 46ZM23.936 47.04C21.744 47.04 20.432 47.616 20.432 48.608C20.432 49.6 21.744 50.192 23.936 50.192C26.128 50.192 27.44 49.6 27.44 48.608C27.44 47.616 26.128 47.04 23.936 47.04ZM31.5188 48.272H44.6228V49.376H31.5188V48.272ZM37.3428 44.768H38.6548V48.64H37.3428V44.768ZM37.3108 37.744H38.4628V38.864C38.4628 41.952 35.5028 44.336 32.5908 44.944L32.0308 43.84C34.5748 43.376 37.3108 41.248 37.3108 38.864V37.744ZM37.5508 37.744H38.7028V38.864C38.7028 41.264 41.4548 43.376 43.9988 43.84L43.4228 44.944C40.5108 44.336 37.5508 41.952 37.5508 38.864V37.744ZM52.0935 42.4H54.8295V43.504H52.0935V42.4ZM57.2455 36.784H58.5255V51.248H57.2455V36.784ZM54.3815 37.088H55.6455V50.528H54.3815V37.088ZM49.4855 37.984C51.3575 37.984 52.5735 39.92 52.5735 43.024C52.5735 46.128 51.3575 48.064 49.4855 48.064C47.6135 48.064 46.4135 46.128 46.4135 43.024C46.4135 39.92 47.6135 37.984 49.4855 37.984ZM49.4855 39.216C48.3495 39.216 47.6295 40.688 47.6295 43.024C47.6295 45.36 48.3495 46.832 49.4855 46.832C50.6375 46.832 51.3575 45.36 51.3575 43.024C51.3575 40.688 50.6375 39.216 49.4855 39.216ZM69.0243 38.848H70.0803V41.2C70.0803 44.208 68.2403 47.312 65.9843 48.464L65.2163 47.408C67.2803 46.4 69.0243 43.648 69.0243 41.2V38.848ZM69.2643 38.848H70.3203V41.2C70.3203 43.488 71.9523 46.064 74.0483 47.056L73.2963 48.112C71.0083 46.976 69.2643 44.064 69.2643 41.2V38.848ZM65.7283 38.256H73.5203V39.376H65.7283V38.256ZM75.2323 36.784H76.5763V51.248H75.2323V36.784ZM76.2563 42.624H78.9443V43.744H76.2563V42.624ZM85.967 38.208H87.119V38.816C87.119 41.408 84.367 43.312 81.455 43.808L80.943 42.752C83.487 42.384 85.967 40.72 85.967 38.816V38.208ZM86.303 38.208H87.439V38.816C87.439 40.72 89.935 42.384 92.463 42.752L91.967 43.808C89.039 43.312 86.303 41.408 86.303 38.816V38.208ZM86.015 45.728H87.327V51.248H86.015V45.728ZM80.175 45.024H93.247V46.112H80.175V45.024ZM81.391 37.68H91.983V38.752H81.391V37.68ZM101.634 46.128H111.282V51.264H109.954V47.184H101.634V46.128ZM109.954 36.784H111.282V45.312H109.954V36.784ZM106.402 40.4H110.354V41.504H106.402V40.4ZM100.05 37.872H106.658V44.336H100.05V37.872ZM105.346 38.928H101.346V43.28H105.346V38.928ZM115.873 41.12H125.697V42.208H115.873V41.12ZM114.097 44.144H127.217V45.232H114.097V44.144ZM115.873 37.312H117.185V41.664H115.873V37.312ZM115.777 49.808H125.777V50.896H115.777V49.808ZM115.777 46.672H117.089V50.096H115.777V46.672ZM133.971 38.368H140.515V39.44H133.971V38.368ZM136.227 42.496H137.539V47.392H136.227V42.496ZM139.971 38.368H141.267V39.136C141.267 40.32 141.267 42.208 140.851 44.896L139.539 44.768C139.971 42.16 139.971 40.304 139.971 39.136V38.368ZM143.091 36.784H144.403V51.248H143.091V36.784ZM144.051 42.832H146.723V43.952H144.051V42.832ZM133.331 48.096L133.171 46.976C135.795 46.976 139.283 46.928 142.211 46.56L142.275 47.536C139.283 48.016 135.891 48.08 133.331 48.096ZM152.098 37.312C154.258 37.312 155.842 38.624 155.842 40.528C155.842 42.416 154.258 43.728 152.098 43.728C149.954 43.728 148.37 42.416 148.37 40.528C148.37 38.624 149.954 37.312 152.098 37.312ZM152.098 38.4C150.706 38.4 149.65 39.28 149.65 40.528C149.65 41.776 150.706 42.64 152.098 42.64C153.506 42.64 154.546 41.776 154.546 40.528C154.546 39.28 153.506 38.4 152.098 38.4ZM158.562 36.784H159.906V44.192H158.562V36.784ZM150.546 44.896H159.906V48.416H151.874V50.592H150.578V47.424H158.594V45.968H150.546V44.896ZM150.578 50H160.386V51.056H150.578V50ZM169.297 37.024C172.481 37.024 174.385 37.92 174.385 39.536C174.385 41.152 172.481 42.048 169.297 42.048C166.097 42.048 164.209 41.152 164.209 39.536C164.209 37.92 166.097 37.024 169.297 37.024ZM169.297 38.032C166.929 38.032 165.569 38.576 165.569 39.536C165.569 40.496 166.929 41.04 169.297 41.04C171.649 41.04 173.009 40.496 173.009 39.536C173.009 38.576 171.649 38.032 169.297 38.032ZM162.753 43.008H175.825V44.08H162.753V43.008ZM164.337 45.312H174.161V48.576H165.681V50.336H164.369V47.616H172.849V46.336H164.337V45.312ZM164.369 50.048H174.593V51.088H164.369V50.048ZM189.396 40.192H193.044V41.296H189.396V40.192ZM185.604 37.664H186.676V39.44C186.676 42.24 185.108 44.576 182.692 45.552L182.004 44.496C184.148 43.696 185.604 41.648 185.604 39.44V37.664ZM185.86 37.664H186.932V39.488C186.932 41.504 188.34 43.408 190.436 44.176L189.716 45.2C187.412 44.304 185.86 42.064 185.86 39.488V37.664ZM192.548 36.8H193.876V47.616H192.548V36.8ZM184.58 49.84H194.228V50.928H184.58V49.84ZM184.58 46.416H185.908V50.352H184.58V46.416ZM197.314 43.696H198.242C200.514 43.696 201.858 43.648 203.474 43.328L203.602 44.416C201.938 44.736 200.562 44.8 198.242 44.8H197.314V43.696ZM197.314 37.84H202.914V38.928H198.594V44.288H197.314V37.84ZM198.194 40.72H202.738V41.76H198.194V40.72ZM207.618 36.784H208.882V45.552H207.618V36.784ZM205.282 40.56H208.018V41.648H205.282V40.56ZM204.434 37.056H205.682V45.472H204.434V37.056ZM199.186 46.32H208.882V51.248H207.57V47.408H199.186V46.32ZM221.217 36.784H222.545V51.248H221.217V36.784ZM222.225 42.72H224.913V43.84H222.225V42.72ZM211.345 39.088H219.873V40.176H211.345V39.088ZM215.665 41.376C217.713 41.376 219.185 42.752 219.185 44.704C219.185 46.656 217.713 48.032 215.665 48.032C213.633 48.032 212.145 46.656 212.145 44.704C212.145 42.752 213.633 41.376 215.665 41.376ZM215.665 42.48C214.353 42.48 213.409 43.392 213.409 44.704C213.409 46 214.353 46.928 215.665 46.928C216.977 46.928 217.921 46 217.921 44.704C217.921 43.392 216.977 42.48 215.665 42.48ZM214.977 36.96H216.305V39.584H214.977V36.96ZM229.952 38.032H231.04V40.624C231.04 43.952 229.248 47.04 226.88 48.24L226.064 47.152C228.208 46.128 229.952 43.36 229.952 40.624V38.032ZM230.176 38.032H231.264V40.624C231.264 43.264 232.992 45.92 235.136 46.912L234.336 47.968C231.984 46.816 230.176 43.84 230.176 40.624V38.032ZM236.64 36.768H237.968V51.264H236.64V36.768ZM247.791 39.328H251.839V40.416H247.791V39.328ZM247.791 42.416H251.871V43.52H247.791V42.416ZM241.519 38.032H248.127V44.816H241.519V38.032ZM246.815 39.104H242.815V43.744H246.815V39.104ZM251.423 36.8H252.751V47.36H251.423V36.8ZM243.455 49.84H253.103V50.928H243.455V49.84ZM243.455 46.4H244.783V50.336H243.455V46.4ZM264.193 41.68H265.537V44.08H264.193V41.68ZM270.609 36.784H271.937V45.12H270.609V36.784ZM260.321 44.768L260.129 43.696C262.769 43.696 266.369 43.664 269.425 43.216L269.521 44.16C266.369 44.72 262.897 44.768 260.321 44.768ZM261.425 41.008H268.369V42.08H261.425V41.008ZM261.425 37.504H268.241V38.592H262.753V41.424H261.425V37.504ZM262.449 45.76H263.777V47.28H270.625V45.76H271.937V51.056H262.449V45.76ZM263.777 48.32V49.984H270.625V48.32H263.777ZM285.312 36.784H286.64V51.248H285.312V36.784ZM275.712 38.192H277.024V47.152H275.712V38.192ZM275.712 46.368H276.896C279.088 46.368 281.376 46.208 283.824 45.696L283.984 46.832C281.472 47.344 279.184 47.52 276.896 47.52H275.712V46.368ZM299.295 36.768H300.639V51.264H299.295V36.768ZM300.319 42.48H303.007V43.6H300.319V42.48ZM290.127 46.544H291.263C293.935 46.544 295.807 46.448 297.967 46.048L298.111 47.168C295.887 47.584 293.983 47.664 291.263 47.664H290.127V46.544ZM290.127 38.176H296.847V39.264H291.439V47.04H290.127V38.176ZM305.642 50.0909C305.362 50.0909 305.121 49.9905 304.92 49.7898C304.72 49.589 304.619 49.3485 304.619 49.0682C304.619 48.7879 304.72 48.5473 304.92 48.3466C305.121 48.1458 305.362 48.0455 305.642 48.0455C305.922 48.0455 306.163 48.1458 306.364 48.3466C306.564 48.5473 306.665 48.7879 306.665 49.0682C306.665 49.2538 306.617 49.4242 306.523 49.5795C306.432 49.7348 306.309 49.8598 306.153 49.9545C306.002 50.0455 305.831 50.0909 305.642 50.0909Z" fill="#64748B"/>
<rect width="300" height="32" transform="translate(16 80)" fill="#F1F5F9"/>
<circle cx="39" cy="96" r="5" stroke="#94A3B8" stroke-width="4"/>
<path d="M65.794 90.528H66.746V92.796C66.746 95.596 65.234 98.326 63.232 99.39L62.518 98.466C64.352 97.542 65.794 95.106 65.794 92.796V90.528ZM66.004 90.528H66.942V92.796C66.942 95.022 68.356 97.332 70.148 98.228L69.434 99.152C67.474 98.102 66.004 95.512 66.004 92.796V90.528ZM71.254 89.436H72.43V102.092H71.254V89.436ZM72.15 94.56H74.502V95.54H72.15V94.56ZM76.1389 90.822H81.8649V91.76H76.1389V90.822ZM78.1129 94.434H79.2609V98.718H78.1129V94.434ZM81.3889 90.822H82.5229V91.494C82.5229 92.53 82.5229 94.182 82.1589 96.534L81.0109 96.422C81.3889 94.14 81.3889 92.516 81.3889 91.494V90.822ZM84.1189 89.436H85.2669V102.092H84.1189V89.436ZM84.9589 94.728H87.2969V95.708H84.9589V94.728ZM75.5789 99.334L75.4389 98.354C77.7349 98.354 80.7869 98.312 83.3489 97.99L83.4049 98.844C80.7869 99.264 77.8189 99.32 75.5789 99.334Z" fill="#475569"/>
<circle cx="39" cy="136" r="5" stroke="#CBD5E1" stroke-width="4"/>
<path d="M71.254 129.436H72.43V142.092H71.254V129.436ZM72.15 134.406H74.502V135.4H72.15V134.406ZM63.19 130.5H64.338V133.846H67.95V130.5H69.098V139.054H63.19V130.5ZM64.338 134.77V138.102H67.95V134.77H64.338ZM84.9869 134.476H87.3249V135.456H84.9869V134.476ZM84.1329 129.422H85.3089V142.092H84.1329V129.422ZM76.0689 130.668H77.2309V138.508H76.0689V130.668ZM76.0689 137.906H77.0769C78.9529 137.906 80.8709 137.78 82.9569 137.346L83.0969 138.312C80.9409 138.76 78.9949 138.886 77.0769 138.886H76.0689V137.906ZM97.8658 134.476H100.204V135.456H97.8658V134.476ZM97.0118 129.422H98.1878V142.092H97.0118V129.422ZM88.9478 130.668H90.1098V138.508H88.9478V130.668ZM88.9478 137.906H89.9558C91.8318 137.906 93.7498 137.78 95.8358 137.346L95.9758 138.312C93.8198 138.76 91.8738 138.886 89.9558 138.886H88.9478V137.906Z" fill="#475569"/>
<circle cx="39" cy="176" r="5" stroke="#CBD5E1" stroke-width="4"/>
<path d="M62.7 179.558H74.166V180.524H62.7V179.558ZM67.81 176.282H68.972V179.992H67.81V176.282ZM63.694 170.64H73.088V171.592H63.694V170.64ZM63.722 175.736H73.074V176.674H63.722V175.736ZM65.668 171.41H66.83V175.904H65.668V171.41ZM69.98 171.41H71.128V175.904H69.98V171.41ZM77.0209 175.344H85.7149V176.296H77.0209V175.344ZM75.5789 179.53H87.0449V180.51H75.5789V179.53ZM80.7029 175.75H81.8649V179.922H80.7029V175.75ZM77.0209 170.444H85.5889V171.396H78.1829V175.764H77.0209V170.444Z" fill="#475569"/>
</g>
</svg>
