<svg width="450" height="160" viewBox="0 0 450 160" fill="none" xmlns="http://www.w3.org/2000/svg">
<g opacity="0.9">
<path d="M23.82 9.78H26.46V12.36H23.82V9.78ZM23.34 5.58H25.66V6.04C25.66 8.56 23.12 10.5 18.32 10.82L17.5 8.84C21.56 8.62 23.34 7.28 23.34 6.04V5.58ZM24.7 5.58H27V6.04C27 7.28 28.76 8.62 32.84 8.84L32.02 10.82C27.24 10.5 24.7 8.58 24.7 6.04V5.58ZM18.32 4.72H32.04V6.74H18.32V4.72ZM18.3 15.42H32V17.42H18.3V15.42ZM16.8 11.46H33.58V13.56H16.8V11.46ZM25.14 17.96C28.72 17.96 30.8 18.82 30.8 20.4C30.8 22 28.72 22.84 25.14 22.84C21.56 22.84 19.48 22 19.48 20.4C19.48 18.82 21.56 17.96 25.14 17.96ZM25.14 19.7C23.2 19.7 22.24 19.88 22.24 20.4C22.24 20.9 23.2 21.1 25.14 21.1C27.08 21.1 28.04 20.9 28.04 20.4C28.04 19.88 27.08 19.7 25.14 19.7ZM23.82 14.12H26.48V16.62H23.82V14.12ZM40.1584 5.54C42.9784 5.54 45.0184 8.1 45.0184 12.14C45.0184 16.22 42.9784 18.78 40.1584 18.78C37.3384 18.78 35.2984 16.22 35.2984 12.14C35.2984 8.1 37.3384 5.54 40.1584 5.54ZM40.1584 7.96C38.7784 7.96 37.8584 9.42 37.8584 12.14C37.8584 14.9 38.7784 16.38 40.1584 16.38C41.5384 16.38 42.4784 14.9 42.4784 12.14C42.4784 9.42 41.5384 7.96 40.1584 7.96ZM47.0384 4.26H49.7184V22.78H47.0384V4.26ZM49.1184 11.24H52.3984V13.44H49.1184V11.24ZM65.4769 4.26H68.1169V22.78H65.4769V4.26ZM67.5169 11.48H70.7969V13.7H67.5169V11.48ZM53.5169 7H64.2969V9.12H53.5169V7ZM58.9369 10.16C61.6369 10.16 63.6369 12 63.6369 14.58C63.6369 17.16 61.6369 19 58.9369 19C56.2369 19 54.2369 17.16 54.2369 14.58C54.2369 12 56.2369 10.16 58.9369 10.16ZM58.9369 12.32C57.6769 12.32 56.7769 13.16 56.7769 14.58C56.7769 16 57.6769 16.84 58.9369 16.84C60.1969 16.84 61.0969 16 61.0969 14.58C61.0969 13.16 60.1969 12.32 58.9369 12.32ZM57.5969 4.56H60.2569V7.8H57.5969V4.56ZM74.0753 9.26H86.9153V11.36H74.0753V9.26ZM71.9953 13.28H88.7753V15.4H71.9953V13.28ZM74.0753 4.92H76.7153V10.3H74.0753V4.92ZM73.8953 20.26H87.0153V22.38H73.8953V20.26ZM73.8953 16.88H76.5553V20.82H73.8953V16.88ZM99.9827 5.54C102.803 5.54 104.843 8.1 104.843 12.14C104.843 16.22 102.803 18.78 99.9827 18.78C97.1627 18.78 95.1227 16.22 95.1227 12.14C95.1227 8.1 97.1627 5.54 99.9827 5.54ZM99.9827 7.96C98.6027 7.96 97.6827 9.42 97.6827 12.14C97.6827 14.9 98.6027 16.38 99.9827 16.38C101.363 16.38 102.303 14.9 102.303 12.14C102.303 9.42 101.363 7.96 99.9827 7.96ZM106.863 4.26H109.543V22.78H106.863V4.26ZM108.943 11.24H112.223V13.44H108.943V11.24ZM114.421 16.44H116.021C119.261 16.44 121.741 16.38 124.601 15.96L124.841 18.06C121.941 18.52 119.321 18.6 116.021 18.6H114.421V16.44ZM114.421 5.8H123.801V7.96H117.061V17.14H114.421V5.8ZM116.461 10.94H123.021V13.02H116.461V10.94ZM126.181 4.26H128.861V22.78H126.181V4.26ZM138.7 5.32H141.02V6.66C141.02 10.68 138.16 14.24 133.36 15.18L132.22 12.98C136.4 12.26 138.7 9.32 138.7 6.66V5.32ZM139.24 5.32H141.54V6.66C141.54 9.38 143.82 12.26 148.02 12.98L146.88 15.18C142.08 14.24 139.24 10.74 139.24 6.66V5.32ZM131.84 18.36H148.6V20.52H131.84V18.36ZM152.198 13.8H165.218V15.88H152.198V13.8ZM150.238 18.5H166.998V20.66H150.238V18.5ZM152.198 5.6H165.058V7.74H154.898V14.38H152.198V5.6ZM154.078 9.68H164.638V11.74H154.078V9.68ZM172.776 13.64H175.436V18.02H172.776V13.64ZM174.076 5.34C176.936 5.34 179.116 7.24 179.116 9.9C179.116 12.56 176.936 14.46 174.076 14.46C171.196 14.46 169.036 12.56 169.036 9.9C169.036 7.24 171.196 5.34 174.076 5.34ZM174.076 7.6C172.676 7.6 171.636 8.44 171.636 9.9C171.636 11.34 172.676 12.2 174.076 12.2C175.476 12.2 176.516 11.34 176.516 9.9C176.516 8.44 175.476 7.6 174.076 7.6ZM180.576 4.26H183.236V22.78H180.576V4.26ZM182.416 11.5H185.676V13.72H182.416V11.5ZM168.736 19.1L168.416 16.96C171.616 16.94 175.936 16.96 179.616 16.46L179.816 18.4C175.976 19.12 171.856 19.12 168.736 19.1ZM193.524 12.22H206.644V14.34H193.524V12.22ZM191.664 18.56H208.424V20.7H191.664V18.56ZM198.704 13.48H201.364V19.16H198.704V13.48ZM193.524 5.66H196.204V13.14H193.524V5.66ZM210.542 16.5H211.842C214.042 16.5 215.982 16.46 218.262 16.1L218.462 18.24C216.102 18.64 214.102 18.7 211.842 18.7H210.542V16.5ZM210.522 6.06H217.542V13.22H213.122V17.3H210.542V11.12H214.962V8.18H210.522V6.06ZM223.422 4.26H225.942V22.78H223.422V4.26ZM220.942 11.26H224.022V13.38H220.942V11.26ZM219.282 4.58H221.742V21.9H219.282V4.58ZM228.441 12.56H245.221V14.5H228.441V12.56ZM230.321 15.42H243.221V19.82H233.001V21.4H230.361V18.14H240.601V17.22H230.321V15.42ZM230.361 20.84H243.741V22.64H230.361V20.84ZM230.501 4.58H243.181V8.94H233.161V10.46H230.521V7.28H240.561V6.36H230.501V4.58ZM230.521 9.9H243.521V11.7H230.521V9.9ZM255.748 6.1H257.908V7.28C257.908 10.76 256.268 13.98 252.708 15.14L251.368 13.04C254.428 12.04 255.748 9.6 255.748 7.28V6.1ZM256.308 6.1H258.448V7.28C258.448 9.44 259.708 11.72 262.628 12.7L261.328 14.78C257.888 13.64 256.308 10.56 256.308 7.28V6.1ZM261.548 8.68H265.068V10.84H261.548V8.68ZM252.088 5.28H262.048V7.38H252.088V5.28ZM254.348 16.12H266.968V22.78H264.308V18.24H254.348V16.12ZM264.308 4.26H266.968V15.28H264.308V4.26ZM274.946 5.54C277.706 5.54 279.726 8.1 279.726 12.14C279.726 16.22 277.706 18.78 274.946 18.78C272.166 18.78 270.166 16.22 270.166 12.14C270.166 8.1 272.166 5.54 274.946 5.54ZM274.946 7.96C273.606 7.96 272.706 9.42 272.706 12.14C272.706 14.9 273.606 16.38 274.946 16.38C276.306 16.38 277.186 14.9 277.186 12.14C277.186 9.42 276.306 7.96 274.946 7.96ZM282.766 4.24H285.406V22.82H282.766V4.24ZM278.946 10.92H283.886V13.06H278.946V10.92ZM295.125 6.32H297.425V6.86C297.425 10.12 294.765 12.78 290.065 13.42L289.085 11.34C293.165 10.84 295.125 8.76 295.125 6.86V6.32ZM295.885 6.32H298.185V6.86C298.185 8.76 300.145 10.84 304.225 11.34L303.265 13.42C298.545 12.78 295.885 10.12 295.885 6.86V6.32ZM295.265 16H297.905V22.8H295.265V16ZM288.285 14.48H305.025V16.6H288.285V14.48ZM289.765 5.2H303.505V7.3H289.765V5.2ZM313.963 10.48H317.023V12.64H313.963V10.48ZM310.003 5.86H312.043V8.98C312.043 13.18 310.883 17.28 307.923 19.1L306.323 17.1C309.043 15.42 310.003 12.12 310.003 8.98V5.86ZM310.583 5.86H312.583V8.86C312.583 11.88 313.363 14.96 315.883 16.6L314.443 18.68C311.503 16.86 310.583 12.86 310.583 8.86V5.86ZM320.043 4.26H322.583V22.78H320.043V4.26ZM316.283 4.54H318.763V21.94H316.283V4.54ZM328.762 13.66H331.402V18.86H328.762V13.66ZM335.482 13.66H338.142V18.86H335.482V13.66ZM325.082 18.48H341.842V20.64H325.082V18.48ZM333.442 5.16C337.422 5.16 340.362 7.12 340.362 10.14C340.362 13.16 337.422 15.1 333.442 15.1C329.442 15.1 326.522 13.16 326.522 10.14C326.522 7.12 329.442 5.16 333.442 5.16ZM333.442 7.24C330.862 7.24 329.142 8.3 329.142 10.14C329.142 11.96 330.862 13.04 333.442 13.04C336.022 13.04 337.742 11.96 337.742 10.14C337.742 8.3 336.022 7.24 333.442 7.24Z" fill="#1E293B"/>
<path d="M22.656 41.072H23.968V43.28H22.656V41.072ZM22.464 37.664H23.632V38.112C23.632 40.288 20.944 41.68 17.904 41.968L17.472 40.96C20.08 40.752 22.464 39.632 22.464 38.112V37.664ZM23.04 37.664H24.192V38.112C24.192 39.616 26.576 40.752 29.184 40.96L28.752 41.968C25.728 41.68 23.04 40.288 23.04 38.112V37.664ZM17.984 37.232H28.688V38.272H17.984V37.232ZM18 45.76H28.656V46.816H18V45.76ZM16.784 42.784H29.904V43.856H16.784V42.784ZM23.328 47.52C26.112 47.52 27.664 48.176 27.664 49.424C27.664 50.688 26.112 51.328 23.328 51.328C20.544 51.328 18.976 50.688 18.976 49.424C18.976 48.176 20.544 47.52 23.328 47.52ZM23.328 48.432C21.408 48.432 20.336 48.768 20.336 49.424C20.336 50.08 21.408 50.416 23.328 50.416C25.232 50.416 26.32 50.08 26.32 49.424C26.32 48.768 25.232 48.432 23.328 48.432ZM22.672 44.432H23.984V46.432H22.672V44.432ZM35.3588 37.888C37.4868 37.888 38.9908 39.856 38.9908 42.928C38.9908 46.016 37.4868 47.984 35.3588 47.984C33.2308 47.984 31.7268 46.016 31.7268 42.928C31.7268 39.856 33.2308 37.888 35.3588 37.888ZM35.3588 39.088C33.9508 39.088 32.9908 40.592 32.9908 42.928C32.9908 45.28 33.9508 46.816 35.3588 46.816C36.7508 46.816 37.7268 45.28 37.7268 42.928C37.7268 40.592 36.7508 39.088 35.3588 39.088ZM41.2948 36.784H42.6388V51.248H41.2948V36.784ZM42.3188 42.56H45.0068V43.68H42.3188V42.56ZM56.0295 36.784H57.3575V51.248H56.0295V36.784ZM57.0375 42.72H59.7255V43.84H57.0375V42.72ZM46.1575 39.088H54.6855V40.176H46.1575V39.088ZM50.4775 41.376C52.5255 41.376 53.9975 42.752 53.9975 44.704C53.9975 46.656 52.5255 48.032 50.4775 48.032C48.4455 48.032 46.9575 46.656 46.9575 44.704C46.9575 42.752 48.4455 41.376 50.4775 41.376ZM50.4775 42.48C49.1655 42.48 48.2215 43.392 48.2215 44.704C48.2215 46 49.1655 46.928 50.4775 46.928C51.7895 46.928 52.7335 46 52.7335 44.704C52.7335 43.392 51.7895 42.48 50.4775 42.48ZM49.7895 36.96H51.1175V39.584H49.7895V36.96ZM62.7163 41.12H72.5403V42.208H62.7163V41.12ZM60.9403 44.144H74.0603V45.232H60.9403V44.144ZM62.7163 37.312H64.0283V41.664H62.7163V37.312ZM62.6203 49.808H72.6203V50.896H62.6203V49.808ZM62.6203 46.672H63.9323V50.096H62.6203V46.672ZM90.671 36.768H91.999V51.264H90.671V36.768ZM84.367 37.888C86.511 37.888 88.047 39.856 88.047 42.928C88.047 46.016 86.511 47.984 84.367 47.984C82.239 47.984 80.703 46.016 80.703 42.928C80.703 39.856 82.239 37.888 84.367 37.888ZM84.367 39.088C82.959 39.088 81.967 40.592 81.967 42.928C81.967 45.28 82.959 46.816 84.367 46.816C85.791 46.816 86.767 45.28 86.767 42.928C86.767 40.592 85.791 39.088 84.367 39.088ZM98.2378 45.728H99.5978V51.248H98.2378V45.728ZM103.214 45.728H104.574V51.248H103.214V45.728ZM94.8778 45.008H107.998V46.112H94.8778V45.008ZM101.406 37.36C104.43 37.36 106.462 38.576 106.462 40.512C106.462 42.432 104.43 43.664 101.406 43.664C98.3978 43.664 96.3498 42.432 96.3498 40.512C96.3498 38.576 98.3978 37.36 101.406 37.36ZM101.406 38.432C99.1978 38.432 97.6938 39.248 97.6938 40.512C97.6938 41.776 99.1978 42.592 101.406 42.592C103.614 42.592 105.102 41.776 105.102 40.512C105.102 39.248 103.614 38.432 101.406 38.432ZM119.389 36.768H120.733V51.248H119.389V36.768ZM120.365 42.64H123.037V43.744H120.365V42.64ZM115.693 38.336H116.989C116.989 42.448 115.101 46.16 110.429 48.512L109.693 47.488C113.693 45.456 115.693 42.368 115.693 38.544V38.336ZM110.365 38.336H116.381V39.424H110.365V38.336ZM132.431 45.68H133.455V46.464C133.455 48.352 132.271 50.256 130.191 51.056L129.519 50.064C131.343 49.408 132.431 47.856 132.431 46.464V45.68ZM132.719 45.68H133.711V46.464C133.711 47.92 134.575 49.472 136.303 50.176L135.743 51.184C133.663 50.368 132.719 48.384 132.719 46.464V45.68ZM137.775 45.68H138.767V46.464C138.767 48.16 137.807 50.304 135.743 51.184L135.183 50.176C136.895 49.392 137.775 47.712 137.775 46.464V45.68ZM138.047 45.68H139.071V46.464C139.071 47.952 140.143 49.44 141.983 50.064L141.311 51.056C139.199 50.288 138.047 48.464 138.047 46.464V45.68ZM139.343 36.8H140.687V45.056H139.343V36.8ZM132.927 37.632C135.119 37.632 136.687 39.008 136.687 41.008C136.687 43.008 135.119 44.368 132.927 44.368C130.735 44.368 129.151 43.008 129.151 41.008C129.151 39.008 130.735 37.632 132.927 37.632ZM132.927 38.736C131.487 38.736 130.447 39.664 130.447 41.008C130.447 42.352 131.487 43.264 132.927 43.264C134.367 43.264 135.407 42.352 135.407 41.008C135.407 39.664 134.367 38.736 132.927 38.736ZM153.326 36.768H154.67V51.264H153.326V36.768ZM154.35 42.48H157.038V43.6H154.35V42.48ZM144.158 46.544H145.294C147.966 46.544 149.838 46.448 151.998 46.048L152.142 47.168C149.918 47.584 148.014 47.664 145.294 47.664H144.158V46.544ZM144.158 38.176H150.878V39.264H145.47V47.04H144.158V38.176ZM165.197 39.328H169.245V40.416H165.197V39.328ZM165.197 42.416H169.277V43.52H165.197V42.416ZM158.925 38.032H165.533V44.816H158.925V38.032ZM164.221 39.104H160.221V43.744H164.221V39.104ZM168.829 36.8H170.157V47.36H168.829V36.8ZM160.861 49.84H170.509V50.928H160.861V49.84ZM160.861 46.4H162.189V50.336H160.861V46.4ZM187.376 36.784H188.704V45.488H187.376V36.784ZM188.336 40.624H190.848V41.728H188.336V40.624ZM179.616 46.304H188.704V51.056H179.616V46.304ZM187.408 47.376H180.911V49.984H187.408V47.376ZM177.52 38.304H186.064V39.392H177.52V38.304ZM181.792 40.096C183.856 40.096 185.248 41.12 185.248 42.688C185.248 44.256 183.856 45.248 181.792 45.248C179.712 45.248 178.32 44.256 178.32 42.688C178.32 41.12 179.712 40.096 181.792 40.096ZM181.792 41.12C180.464 41.12 179.584 41.728 179.584 42.688C179.584 43.632 180.464 44.24 181.792 44.24C183.088 44.24 183.984 43.632 183.984 42.688C183.984 41.728 183.088 41.12 181.792 41.12ZM181.12 36.656H182.448V38.864H181.12V36.656ZM194.622 38.512H195.742C195.742 41.616 195.326 45.024 193.262 47.84L192.222 47.232C194.206 44.656 194.622 41.632 194.622 38.608V38.512ZM192.526 38.512H195.278V39.616H192.526V38.512ZM197.806 38.512H198.942C198.942 41.568 198.75 45.632 196.478 48.768L195.422 48.16C197.63 45.28 197.806 41.52 197.806 38.624V38.512ZM196.222 38.512H198.51V39.616H196.222V38.512ZM203.262 36.784H204.542V51.248H203.262V36.784ZM198.27 42.464H200.862V43.552H198.27V42.464ZM200.59 37.152H201.838V50.512H200.59V37.152ZM214.977 38.272H216.065V39.44C216.065 42.096 214.465 44.304 212.049 45.168L211.345 44.128C213.537 43.36 214.977 41.504 214.977 39.44V38.272ZM215.217 38.272H216.305V39.424C216.305 41.344 217.697 43.12 219.825 43.84L219.137 44.88C216.753 44.048 215.217 41.92 215.217 39.424V38.272ZM211.761 37.792H219.489V38.88H211.761V37.792ZM221.313 36.784H222.641V45.488H221.313V36.784ZM222.273 40.592H224.785V41.696H222.273V40.592ZM213.249 46.256H222.641V51.248H221.313V47.36H213.249V46.256ZM229.776 37.6H230.88V39.088C230.88 41.888 229.296 44.176 226.816 45.104L226.128 44.016C228.336 43.232 229.776 41.296 229.776 39.088V37.6ZM230.016 37.6H231.104V39.04C231.104 41.088 232.512 42.896 234.624 43.632L233.904 44.672C231.568 43.792 230.016 41.664 230.016 39.04V37.6ZM236.704 36.784H238.032V45.344H236.704V36.784ZM233.28 45.76C236.256 45.76 238.096 46.768 238.096 48.496C238.096 50.224 236.256 51.216 233.28 51.216C230.288 51.216 228.448 50.224 228.448 48.496C228.448 46.768 230.288 45.76 233.28 45.76ZM233.28 46.816C231.104 46.816 229.776 47.44 229.776 48.496C229.776 49.552 231.104 50.176 233.28 50.176C235.456 50.176 236.784 49.552 236.784 48.496C236.784 47.44 235.456 46.816 233.28 46.816ZM233.568 39.84H236.992V40.944H233.568V39.84ZM240.831 39.248H247.999V40.336H240.831V39.248ZM244.415 41.296C246.223 41.296 247.535 42.656 247.535 44.608C247.535 46.544 246.223 47.904 244.415 47.904C242.623 47.904 241.311 46.544 241.311 44.608C241.311 42.656 242.623 41.296 244.415 41.296ZM244.415 42.432C243.311 42.432 242.511 43.328 242.511 44.608C242.511 45.888 243.311 46.784 244.415 46.784C245.535 46.784 246.351 45.888 246.351 44.608C246.351 43.328 245.535 42.432 244.415 42.432ZM251.823 36.784H253.103V51.248H251.823V36.784ZM249.519 42.864H252.255V43.968H249.519V42.864ZM248.735 37.104H249.983V50.544H248.735V37.104ZM243.775 37.2H245.087V39.92H243.775V37.2ZM261.373 38.208H262.525V38.816C262.525 41.408 259.773 43.312 256.861 43.808L256.349 42.752C258.893 42.384 261.373 40.72 261.373 38.816V38.208ZM261.709 38.208H262.845V38.816C262.845 40.72 265.341 42.384 267.869 42.752L267.373 43.808C264.445 43.312 261.709 41.408 261.709 38.816V38.208ZM261.421 45.728H262.733V51.248H261.421V45.728ZM255.581 45.024H268.653V46.112H255.581V45.024ZM256.797 37.68H267.389V38.752H256.797V37.68ZM275.996 41.952H278.764V43.056H275.996V41.952ZM273.292 38.144H274.332V40.896C274.332 43.92 273.068 46.848 270.956 48.144L270.124 47.136C272.108 45.968 273.292 43.376 273.292 40.896V38.144ZM273.548 38.144H274.572V40.848C274.572 43.168 275.66 45.632 277.564 46.784L276.796 47.824C274.716 46.544 273.548 43.664 273.548 40.848V38.144ZM281.308 36.784H282.588V51.248H281.308V36.784ZM278.38 37.088H279.628V50.528H278.38V37.088ZM288.219 44.224H289.531V48.56H288.219V44.224ZM293.563 44.224H294.891V48.56H293.563V44.224ZM285.019 48.304H298.123V49.408H285.019V48.304ZM291.547 37.696C294.603 37.696 296.795 39.152 296.795 41.424C296.795 43.68 294.603 45.136 291.547 45.136C288.475 45.136 286.283 43.68 286.283 41.424C286.283 39.152 288.475 37.696 291.547 37.696ZM291.547 38.752C289.227 38.752 287.563 39.808 287.563 41.424C287.563 43.024 289.227 44.08 291.547 44.08C293.867 44.08 295.515 43.024 295.515 41.424C295.515 39.808 293.867 38.752 291.547 38.752ZM306.438 38.3636L306.324 46.7273H305.006L304.892 38.3636H306.438ZM305.665 50.0909C305.384 50.0909 305.144 49.9905 304.943 49.7898C304.742 49.589 304.642 49.3485 304.642 49.0682C304.642 48.7879 304.742 48.5473 304.943 48.3466C305.144 48.1458 305.384 48.0455 305.665 48.0455C305.945 48.0455 306.186 48.1458 306.386 48.3466C306.587 48.5473 306.688 48.7879 306.688 49.0682C306.688 49.2538 306.64 49.4242 306.545 49.5795C306.455 49.7348 306.331 49.8598 306.176 49.9545C306.025 50.0455 305.854 50.0909 305.665 50.0909Z" fill="#64748B"/>
<rect x="15.5" y="79.5" width="419" height="73" fill="#F1F5F9"/>
<rect x="15.5" y="79.5" width="419" height="73" stroke="#64748B"/>
<path d="M33.968 89.422H35.116V102.106H33.968V89.422ZM30.622 94.126H34.304V95.078H30.622V94.126ZM25.204 90.43H26.352V93.72H29.866V90.43H31.014V98.928H25.204V90.43ZM26.352 94.644V97.962H29.866V94.644H26.352ZM42.6469 90.304H43.6549V91.27C43.6549 94.028 41.0929 96.17 38.5589 96.744L38.0409 95.778C40.2669 95.358 42.6469 93.426 42.6469 91.27V90.304ZM42.8569 90.304H43.8649V91.27C43.8649 93.44 46.2589 95.358 48.4709 95.778L47.9529 96.744C45.4329 96.17 42.8569 94.042 42.8569 91.27V90.304ZM37.5789 99.432H49.0449V100.384H37.5789V99.432ZM55.7078 90.752H56.8278C56.8278 94.406 55.5678 97.766 51.1158 100.006L50.4578 99.11C54.3638 97.15 55.7078 94.336 55.7078 90.878V90.752ZM51.1438 90.752H56.4078V91.69H51.1438V90.752ZM55.6378 93.888V94.77L50.6958 95.232L50.4998 94.224L55.6378 93.888ZM59.6978 89.436H60.8598V102.092H59.6978V89.436ZM56.7998 94.504H60.2578V95.47H56.7998V94.504ZM72.6047 89.422H73.7527V102.106H72.6047V89.422ZM69.2587 94.126H72.9407V95.078H69.2587V94.126ZM63.8407 90.43H64.9887V93.72H68.5027V90.43H69.6507V98.928H63.8407V90.43ZM64.9887 94.644V97.962H68.5027V94.644H64.9887ZM81.2836 90.304H82.2916V91.27C82.2916 94.028 79.7296 96.17 77.1956 96.744L76.6776 95.778C78.9036 95.358 81.2836 93.426 81.2836 91.27V90.304ZM81.4936 90.304H82.5016V91.27C82.5016 93.44 84.8956 95.358 87.1076 95.778L86.5896 96.744C84.0696 96.17 81.4936 94.042 81.4936 91.27V90.304ZM76.2156 99.432H87.6816V100.384H76.2156V99.432ZM94.3445 90.752H95.4645C95.4645 94.406 94.2045 97.766 89.7525 100.006L89.0945 99.11C93.0005 97.15 94.3445 94.336 94.3445 90.878V90.752ZM89.7805 90.752H95.0445V91.69H89.7805V90.752ZM94.2745 93.888V94.77L89.3325 95.232L89.1365 94.224L94.2745 93.888ZM98.3345 89.436H99.4965V102.092H98.3345V89.436ZM95.4365 94.504H98.8945V95.47H95.4365V94.504ZM110.66 96.0881V97.1818H106.205V96.0881H110.66ZM116.904 90.192H118.052V92.152H121.482V90.192H122.616V96.058H116.904V90.192ZM118.052 93.076V95.106H121.482V93.076H118.052ZM122.294 92.67H125.878V93.636H122.294V92.67ZM125.528 89.436H126.69V96.814H125.528V89.436ZM122.084 97.836H123.078V98.228C123.078 100.216 120.978 101.658 118.486 102.064L118.052 101.182C120.236 100.86 122.084 99.642 122.084 98.228V97.836ZM122.322 97.836H123.302V98.228C123.302 99.614 125.192 100.86 127.348 101.182L126.914 102.064C124.422 101.658 122.322 100.174 122.322 98.228V97.836ZM118.556 97.472H126.872V98.41H118.556V97.472ZM135.033 89.912H138.659V90.864H135.033V89.912ZM129.167 94.84H140.591V95.792H129.167V94.84ZM134.543 92.684H135.691V95.442H134.543V92.684ZM138.183 89.912H139.303V90.444C139.303 91.172 139.303 92.418 138.953 94.07L137.819 93.944C138.183 92.264 138.183 91.158 138.183 90.444V89.912ZM130.147 89.912H133.479V90.864H130.147V89.912ZM132.863 89.912H133.983V90.402C133.983 91.13 133.983 92.404 133.409 94.084L132.275 93.902C132.863 92.18 132.863 91.102 132.863 90.402V89.912ZM134.277 98.102H135.271V98.284C135.271 100.23 133.073 101.658 130.553 102.036L130.133 101.14C132.317 100.86 134.277 99.67 134.277 98.284V98.102ZM134.473 98.102H135.453V98.284C135.453 99.67 137.427 100.86 139.611 101.14L139.177 102.036C136.671 101.658 134.473 100.244 134.473 98.284V98.102ZM130.651 97.542H139.093V98.466H130.651V97.542ZM134.277 96.254H135.453V97.878H134.277V96.254ZM147.422 93.048H149.578V94H147.422V93.048ZM145.042 90.416C146.694 90.416 147.912 91.69 147.912 93.496C147.912 95.302 146.694 96.576 145.042 96.576C143.362 96.576 142.158 95.302 142.158 93.496C142.158 91.69 143.362 90.416 145.042 90.416ZM145.042 91.424C143.992 91.424 143.208 92.278 143.208 93.496C143.208 94.714 143.992 95.582 145.042 95.582C146.078 95.582 146.862 94.714 146.862 93.496C146.862 92.278 146.078 91.424 145.042 91.424ZM151.594 89.436H152.7V98.9H151.594V89.436ZM149.2 89.688H150.306V98.536H149.2V89.688ZM144.454 100.86H153.092V101.812H144.454V100.86ZM144.454 97.682H145.616V101.294H144.454V97.682ZM164.123 89.436H165.299V97.206H164.123V89.436ZM155.681 95.036H156.731C159.461 95.036 161.043 94.966 162.863 94.588L163.003 95.554C161.127 95.904 159.517 95.988 156.731 95.988H155.681V95.036ZM155.681 90.43H161.631V91.382H156.843V95.554H155.681V90.43ZM161.085 97.234C163.717 97.234 165.341 98.13 165.341 99.656C165.341 101.196 163.717 102.078 161.085 102.078C158.467 102.078 156.843 101.196 156.843 99.656C156.843 98.13 158.467 97.234 161.085 97.234ZM161.085 98.158C159.167 98.158 158.005 98.718 158.005 99.656C158.005 100.594 159.167 101.168 161.085 101.168C163.017 101.168 164.179 100.594 164.179 99.656C164.179 98.718 163.017 98.158 161.085 98.158ZM29.824 113.188H30.972V115.12H29.824V113.188ZM29.656 110.206H30.678V110.598C30.678 112.502 28.326 113.72 25.666 113.972L25.288 113.09C27.57 112.908 29.656 111.928 29.656 110.598V110.206ZM30.16 110.206H31.168V110.598C31.168 111.914 33.254 112.908 35.536 113.09L35.158 113.972C32.512 113.72 30.16 112.502 30.16 110.598V110.206ZM25.736 109.828H35.102V110.738H25.736V109.828ZM25.75 117.29H35.074V118.214H25.75V117.29ZM24.686 114.686H36.166V115.624H24.686V114.686ZM30.412 118.83C32.848 118.83 34.206 119.404 34.206 120.496C34.206 121.602 32.848 122.162 30.412 122.162C27.976 122.162 26.604 121.602 26.604 120.496C26.604 119.404 27.976 118.83 30.412 118.83ZM30.412 119.628C28.732 119.628 27.794 119.922 27.794 120.496C27.794 121.07 28.732 121.364 30.412 121.364C32.078 121.364 33.03 121.07 33.03 120.496C33.03 119.922 32.078 119.628 30.412 119.628ZM29.838 116.128H30.986V117.878H29.838V116.128ZM40.9389 110.402C42.8009 110.402 44.1169 112.124 44.1169 114.812C44.1169 117.514 42.8009 119.236 40.9389 119.236C39.0769 119.236 37.7609 117.514 37.7609 114.812C37.7609 112.124 39.0769 110.402 40.9389 110.402ZM40.9389 111.452C39.7069 111.452 38.8669 112.768 38.8669 114.812C38.8669 116.87 39.7069 118.214 40.9389 118.214C42.1569 118.214 43.0109 116.87 43.0109 114.812C43.0109 112.768 42.1569 111.452 40.9389 111.452ZM46.1329 109.436H47.3089V122.092H46.1329V109.436ZM47.0289 114.49H49.3809V115.47H47.0289V114.49ZM59.0258 109.436H60.1878V122.092H59.0258V109.436ZM59.9078 114.63H62.2598V115.61H59.9078V114.63ZM50.3878 111.452H57.8498V112.404H50.3878V111.452ZM54.1678 113.454C55.9598 113.454 57.2478 114.658 57.2478 116.366C57.2478 118.074 55.9598 119.278 54.1678 119.278C52.3898 119.278 51.0878 118.074 51.0878 116.366C51.0878 114.658 52.3898 113.454 54.1678 113.454ZM54.1678 114.42C53.0198 114.42 52.1938 115.218 52.1938 116.366C52.1938 117.5 53.0198 118.312 54.1678 118.312C55.3158 118.312 56.1418 117.5 56.1418 116.366C56.1418 115.218 55.3158 114.42 54.1678 114.42ZM53.5658 109.59H54.7278V111.886H53.5658V109.59ZM64.8767 113.23H73.4727V114.182H64.8767V113.23ZM63.3227 115.876H74.8027V116.828H63.3227V115.876ZM64.8767 109.898H66.0247V113.706H64.8767V109.898ZM64.7927 120.832H73.5427V121.784H64.7927V120.832ZM64.7927 118.088H65.9407V121.084H64.7927V118.088ZM89.3371 109.422H90.4991V122.106H89.3371V109.422ZM83.8211 110.402C85.6971 110.402 87.0411 112.124 87.0411 114.812C87.0411 117.514 85.6971 119.236 83.8211 119.236C81.9591 119.236 80.6151 117.514 80.6151 114.812C80.6151 112.124 81.9591 110.402 83.8211 110.402ZM83.8211 111.452C82.5891 111.452 81.7211 112.768 81.7211 114.812C81.7211 116.87 82.5891 118.214 83.8211 118.214C85.0671 118.214 85.9211 116.87 85.9211 114.812C85.9211 112.768 85.0671 111.452 83.8211 111.452ZM95.958 117.262H97.148V122.092H95.958V117.262ZM100.312 117.262H101.502V122.092H100.312V117.262ZM93.018 116.632H104.498V117.598H93.018V116.632ZM98.73 109.94C101.376 109.94 103.154 111.004 103.154 112.698C103.154 114.378 101.376 115.456 98.73 115.456C96.098 115.456 94.306 114.378 94.306 112.698C94.306 111.004 96.098 109.94 98.73 109.94ZM98.73 110.878C96.798 110.878 95.482 111.592 95.482 112.698C95.482 113.804 96.798 114.518 98.73 114.518C100.662 114.518 101.964 113.804 101.964 112.698C101.964 111.592 100.662 110.878 98.73 110.878ZM107.451 113.23H116.047V114.182H107.451V113.23ZM105.897 115.876H117.377V116.828H105.897V115.876ZM107.451 109.898H108.599V113.706H107.451V109.898ZM107.367 120.832H116.117V121.784H107.367V120.832ZM107.367 118.088H108.515V121.084H107.367V118.088ZM122.713 115.764H134.151V116.716H122.713V115.764ZM127.865 113.958H129.013V116.142H127.865V113.958ZM124.239 109.702H125.387V111.102H131.505V109.702H132.667V114.364H124.239V109.702ZM125.387 111.998V113.426H131.505V111.998H125.387ZM124.113 117.864H132.751V121.924H124.113V117.864ZM131.617 118.802H125.261V120.986H131.617V118.802ZM144.79 109.422H145.952V122.106H144.79V109.422ZM139.274 110.402C141.15 110.402 142.494 112.124 142.494 114.812C142.494 117.514 141.15 119.236 139.274 119.236C137.412 119.236 136.068 117.514 136.068 114.812C136.068 112.124 137.412 110.402 139.274 110.402ZM139.274 111.452C138.042 111.452 137.174 112.768 137.174 114.812C137.174 116.87 138.042 118.214 139.274 118.214C140.52 118.214 141.374 116.87 141.374 114.812C141.374 112.768 140.52 111.452 139.274 111.452ZM157.683 109.436H158.845V122.092H157.683V109.436ZM149.283 110.668H150.431V118.508H149.283V110.668ZM149.283 117.822H150.319C152.237 117.822 154.239 117.682 156.381 117.234L156.521 118.228C154.323 118.676 152.321 118.83 150.319 118.83H149.283V117.822ZM170.142 109.436H171.29V122.092H170.142V109.436ZM170.926 114.644H173.18V115.624H170.926V114.644ZM164.08 110.794H165.144C165.144 113.846 164.5 116.8 162.232 119.25L161.294 118.592C163.38 116.422 164.08 113.79 164.08 110.92V110.794ZM161.7 110.794H164.514V111.76H161.7V110.794ZM167.524 110.794H168.602C168.602 113.86 168.168 117.332 165.844 120.09L164.906 119.446C167.048 116.968 167.524 113.832 167.524 110.906V110.794ZM165.55 110.794H168V111.76H165.55V110.794ZM175.472 121.08C175.227 121.08 175.016 120.992 174.841 120.816C174.665 120.64 174.577 120.43 174.577 120.185C174.577 119.939 174.665 119.729 174.841 119.553C175.016 119.378 175.227 119.29 175.472 119.29C175.717 119.29 175.928 119.378 176.103 119.553C176.279 119.729 176.367 119.939 176.367 120.185C176.367 120.347 176.325 120.496 176.243 120.632C176.163 120.768 176.055 120.877 175.919 120.96C175.787 121.04 175.638 121.08 175.472 121.08ZM179.327 121.08C179.082 121.08 178.872 120.992 178.696 120.816C178.52 120.64 178.433 120.43 178.433 120.185C178.433 119.939 178.52 119.729 178.696 119.553C178.872 119.378 179.082 119.29 179.327 119.29C179.573 119.29 179.783 119.378 179.959 119.553C180.134 119.729 180.222 119.939 180.222 120.185C180.222 120.347 180.181 120.496 180.098 120.632C180.018 120.768 179.911 120.877 179.775 120.96C179.642 121.04 179.493 121.08 179.327 121.08ZM183.879 110.818L183.779 118.136H182.626L182.527 110.818H183.879ZM183.203 121.08C182.958 121.08 182.747 120.992 182.571 120.816C182.396 120.64 182.308 120.43 182.308 120.185C182.308 119.939 182.396 119.729 182.571 119.553C182.747 119.378 182.958 119.29 183.203 119.29C183.448 119.29 183.658 119.378 183.834 119.553C184.01 119.729 184.098 119.939 184.098 120.185C184.098 120.347 184.056 120.496 183.973 120.632C183.894 120.768 183.786 120.877 183.65 120.96C183.518 121.04 183.368 121.08 183.203 121.08Z" fill="#475569"/>
</g>
</svg>
