<svg width="76" height="15" viewBox="0 0 76 15" fill="none" xmlns="http://www.w3.org/2000/svg">
<path d="M0.64 7.276H14.032V8.956H0.64V7.276ZM6.256 5.756H8.384V8.012H6.256V5.756ZM1.808 0.507999H12.848V2.204H1.808V0.507999ZM1.92 4.428H12.736V6.124H1.92V4.428ZM3.696 1.132H5.824V5.532H3.696V1.132ZM8.832 1.132H10.96V5.532H8.832V1.132ZM2.192 9.932H12.432V14.764H2.192V9.932ZM10.352 11.596H4.288V13.084H10.352V11.596ZM26.4148 5.708H29.0228V7.452H26.4148V5.708ZM24.8308 0.0919991H26.9748V14.908H24.8308V0.0919991ZM15.8068 1.516H17.9348V10.716H15.8068V1.516ZM15.8068 9.532H17.0868C19.1988 9.532 21.4868 9.388 23.8708 8.908L24.0948 10.652C21.6468 11.164 19.2628 11.292 17.0868 11.292H15.8068V9.532ZM31.7415 4.108H42.0135V5.788H31.7415V4.108ZM30.0775 7.324H43.5015V9.02H30.0775V7.324ZM31.7415 0.636H33.8535V4.94H31.7415V0.636ZM31.5975 12.908H42.0935V14.604H31.5975V12.908ZM31.5975 10.204H33.7255V13.356H31.5975V10.204ZM58.3554 0.108H60.4994V14.924H58.3554V0.108ZM59.5394 5.644H62.1474V7.404H59.5394V5.644ZM50.2914 1.276H51.8274V3.772C51.8274 6.86 51.4754 10.044 49.5394 11.644L48.1474 10.172C50.0354 8.684 50.2914 6.124 50.2914 3.772V1.276ZM50.7874 1.276H52.2754V3.772C52.2754 6.028 52.5154 8.716 54.4354 10.284L53.2834 11.852C51.1074 10.204 50.7874 6.716 50.7874 3.772V1.276ZM54.2914 1.276H55.7954V3.772C55.7954 6.748 55.4594 10.22 53.2834 11.852L52.1474 10.284C54.0514 8.732 54.2914 6.06 54.2914 3.772V1.276ZM54.7874 1.276H56.3074V3.772C56.3074 6.14 56.5634 8.7 58.4514 10.172L57.1554 11.724C55.1074 10.108 54.7874 6.86 54.7874 3.772V1.276ZM73.9221 0.108H75.9541V14.924H73.9221V0.108ZM72.1461 5.788H74.5941V7.516H72.1461V5.788ZM70.8021 0.363999H72.7861V14.22H70.8021V0.363999ZM63.3301 1.772H70.0981V3.468H63.3301V1.772ZM63.2981 11.564L63.0741 9.836C64.9141 9.836 68.0021 9.788 70.2101 9.484L70.3541 11.02C68.0821 11.516 65.1061 11.564 63.2981 11.564ZM64.2581 2.86H66.1621V10.284H64.2581V2.86ZM67.2661 2.86H69.1701V10.284H67.2661V2.86Z" fill="#525252"/>
</svg>
